# xmcd
#
# Track frame offsets:
#	150
#	12990
#	26400
#	40670
#	54170
#	66193
#	78365
#	91077
#	100545
#	114365
#	127938
#	146945
#	169243
#	190798
#	211818
#
# Disc length: 2946 seconds
#
# Revision: 1
# Processed by: cddbd v1.5.2PL0 Copyright (c) Steve Scherf et al.
# Submitted via: EasyCDDAExtractor 11.1.0.1
#
DISCID=b60b800f
DTITLE=Various Artist - Les Plus Belle Mélodies Du Cinéma
DYEAR=2002
DGENRE=Blues
TTITLE0=Sphie Zelmani - Always You
TTITLE1=Ry Orbison - Oh Pretty Woman
TTITLE2=Jimmy Cliff - I can see clearly now
TTITLE3=Scott McKenzie - San Francisco
TTITLE4=Tammy Wynette - Stand by your man
TTITLE5=The Platters - Only you
TTITLE6=Bobby Vinton - Blue velvet
TTITLE7=John Barry - The John Dunbar theme
TTITLE8=Van Morrison - Brown Eyed Girl
TTITLE9=R.J. Thomas - Raindrops keep fallin' on my head
TTITLE10=Francis Lai - Love story
TTITLE11=Karoline Kruger - You call it have
TTITLE12=Richard Sanderson - Reality
TTITLE13=Cook Da Books - Your eyes
TTITLE14=Bill Withers - Ain't no sunshine
EXTD=Les Plus Belle Mélodies Du Cinéma
EXTT0=
EXTT1=
EXTT2=
EXTT3=
EXTT4=
EXTT5=
EXTT6=
EXTT7=
EXTT8=
EXTT9=
EXTT10=
EXTT11=
EXTT12=
EXTT13=
EXTT14=
PLAYORDER=
